<svg class="icon" width="24" height="24" viewBox="0 0 1024 1024"
  xmlns="http://www.w3.org/2000/svg">
  <path fill="#1296db"
    d="M818.299 709.673L709.704 818.289c-6.021 6-15.719 6-21.74 0L374.221 504.535l-82.012 189.071c-2.755 6.329-9.39 10.066-16.23 9.094a15.318 15.318 0 01-13.098-13.23L201.33 218.551a15.352 15.352 0 014.362-12.85 15.38 15.38 0 0112.861-4.373L689.48 262.88c3.45.45 6.543 2.028 8.878 4.373a15.337 15.337 0 014.352 8.734c.962 6.83-2.775 13.476-9.104 16.22L504.535 374.2l313.764 313.754c6 6.01 6 15.718 0 21.719z" />
</svg>