<svg class="icon" width="24" height="24" viewBox="0 0 1024 1024"
  xmlns="http://www.w3.org/2000/svg">
  <path fill="#1296db"
    d="M923.67 739.17h-105.2V499.22c0-20.62-16.72-37.33-37.33-37.33s-37.33 16.72-37.33 37.33v239.95H353.25l465.87-477.99c14.39-14.77 14.09-38.39-.67-52.79-14.77-14.38-38.41-14.09-52.79.69L302.08 684.72V284.05h212.08c20.62 0 37.33-16.72 37.33-37.33s-16.72-37.33-37.33-37.33H302.08V100.44c0-20.62-16.72-37.33-37.33-37.33s-37.33 16.72-37.33 37.33v108.94H102.33C81.71 209.38 65 226.1 65 246.71s16.72 37.33 37.33 37.33h125.08V776.5c0 .08.01.16.01.24 0 .34.01.68.03 1.02l.03.85c.02.3.04.61.07.91.03.32.05.64.08.95.02.23.06.46.09.69.05.38.09.77.15 1.15l.06.32c.34 2.05.85 4.04 1.51 5.97l.24.72c.03.08.06.15.09.23 1.6 4.31 4.03 8.38 7.28 11.97.03.03.06.06.08.1.34.37.69.73 1.04 1.09l.24.24c.1.1.19.19.28.29.25.24.5.47.76.7.1.09.19.18.29.27.35.32.71.62 1.06.92.1.09.21.17.31.26.37.3.74.59 1.12.88.1.07.2.15.3.22.39.29.78.57 1.18.84l.29.2c.4.27.81.53 1.22.78.1.06.21.13.31.19.4.24.81.48 1.22.7.12.07.25.14.38.21.39.21.78.41 1.18.61.16.08.32.15.47.23.37.17.74.34 1.11.5.2.09.39.17.59.25.34.14.68.27 1.02.4l.72.27c.3.11.61.21.92.31l.84.27.83.24c.31.09.62.17.94.25l.78.18c.33.07.66.15.99.21.26.05.52.09.78.14.33.06.67.12 1 .17.28.04.56.07.85.11.31.04.63.08.95.11.34.03.69.05 1.04.08.26.02.51.04.77.05.61.03 1.22.05 1.83.05H743.8v107.93c0 20.62 16.72 37.33 37.33 37.33s37.33-16.72 37.33-37.33V813.84h105.2c20.62 0 37.33-16.72 37.33-37.33s-16.71-37.34-37.32-37.34z" />
</svg>