<svg class="icon" width="24" height="24" viewBox="0 0 1024 1024"
  xmlns="http://www.w3.org/2000/svg">
  <path fill="#1296db"
    d="M156.2 411.2c-4.8 0-9.8-1.2-14.2-3.8-13.4-7.8-18-24.8-10.2-38.2C167.4 309.2 275.6 169 512 169c102.4 0 192.2 27.2 266.8 80.8 61.4 44 95.8 93.8 112.2 117.8 8.8 12.8 5.4 30-7.4 38.8-12.8 8.6-30.4 5.4-39.2-7.4-29.8-43.2-120.2-174.4-332.4-174.4-207.2 0-300.8 120.8-331.4 172.6-5.2 9.2-14.6 14-24.4 14zM631 960c12.6 0 24-8.4 27.4-21 3.8-14.8-5.2-30-20.4-33.8C501 870.8 443.8 729 439.4 717.8c-1.4-4.6-7.4-27.4-9.4-55.6-2-27-.6-64.2 17.4-88 13.2-17.4 34.4-25.8 64.6-25.8 55 0 64.2 27.2 78.6 83.6 14 55 33.2 130.4 140 135.8 41 2 78-16.4 104-51.6 39-52.8 46.4-133.6 18.8-205.6-21.6-56.4-63.2-112.8-114-154.8-65.6-54-144.2-82.6-227.4-82.6-180 0-299.6 123.2-338.4 245.4C138 631.4 181.2 795 183 802c4 14.8 19.6 23.8 34.6 19.8 15-3.8 24-19.2 20-34-.4-1.4-40.8-154.8-10-252.4 16.6-52.4 51.2-103.4 94.8-139.6C375 352.2 440.6 329 512 329c167.2 0 262 131.8 288.8 201.8 20.8 54 16 115.4-11.6 153-10.2 13.8-28.2 30-55.6 28.6-62.4-3.2-73.2-34.4-88.2-93.8-7.2-28.6-14.6-58.2-33-82.2-22.4-29.4-55-43.6-100.2-43.6-48.6 0-85.4 16.2-109.6 48-52.8 69.6-18.4 188.4-17 193.4l.4 1.6c2.6 7.2 66.6 180.4 238 223.4 2.4.6 4.6.8 7 .8zm-220-12.8c6.8 0 13.8-2.6 19-7.4 11.4-10.4 12-28.2 1.4-39.4-60.4-64-94.6-135.6-107.4-225.6-6.4-52.8 2.6-132.6 49-184.4 32.2-36 79-54.2 138.8-54.2 69.2 0 121.6 31.2 156 92.6 27.4 48.8 33 98.8 33 99.4 1.6 15.2 15.6 26.4 31 24.8s26.8-15.2 25.2-30.6c-.2-2.4-6.6-60.6-38.8-119-44.4-80.4-115.6-123-206.2-123-76.6 0-137.6 24.6-181 73-58.8 65.6-70.8 161-62.6 228.4v.6c14.6 101.8 53.4 183.2 122 256 5.6 5.8 13 8.8 20.6 8.8zM727 867c12.8 0 26.2-.8 39.8-2.4 15.4-1.6 26.6-15.4 24.8-30.8-1.8-15.4-15.8-26.4-31.2-24.6-61.6 7-111.6-5-149-35.2-63.2-51.2-71.4-140.2-71.6-141.8-1.2-15.4-14.6-26.8-30.2-25.6s-27.2 14.6-26 30c.4 4.6 9.6 113.4 91.6 180.2C616 850.2 667 867 727 867zm64.6-716c0 15.4-12.6 27.8-28.2 27.8-6.4 0-12.2-2-17-5.6l-.4.4.2.2c-.8-.4-72.6-54-234.2-54s-233.4 53.4-234.2 54l.2-.2c-4.6 3.2-10.2 5.2-16.4 5.2-15.6 0-28.2-12.4-28.2-27.8 0-8.2 3.6-15.6 9.4-20.8 0 0 .2 0 .4-.2 1-1 2.2-1.8 3.4-2.6C265 114.6 348.2 64 512 64c156 0 239 45.8 262.4 61.2 10.2 4.2 17.2 14.2 17.2 25.8z" />
</svg>