<svg xmlns="http://www.w3.org/2000/svg" class="icon" viewBox="0 0 1024 1024"
  width="24" height="24">
  <path
    d="M866.791 896c-7.8 0-15.172-3-20.658-8.572L512 553.305 177.867 887.428C172.381 892.914 165.01 896 157.21 896c-7.8 0-15.173-3-20.659-8.572-11.4-11.4-11.4-29.915 0-41.315l334.133-334.124L136.55 177.866c-11.4-11.4-11.4-29.915 0-41.316 11.401-11.4 29.916-11.4 41.317 0L512 470.674 846.133 136.55c11.4-11.4 29.916-11.4 41.317 0 11.4 11.4 11.4 29.915 0 41.316L553.317 511.989 887.45 846.113c11.4 11.4 11.4 29.915 0 41.315C881.964 893 874.592 896 866.79 896z"
    fill="#fff" />
</svg>