<svg class="icon" width="24" height="24" viewBox="0 0 1024 1024"
  xmlns="http://www.w3.org/2000/svg">
  <path fill="#fff"
    d="M115.8 960c-13.7 0-26.6-5.4-36.4-15.2l-.5.4.4-.5c-18.3-18.4-20.4-46.7-5-67.2l179-242.4-138.8-138.8c-16.5-16.5-19.8-42.3-8-62.8l.2-.3c4.5-7.1 21.7-31.7 54.6-51.1 19.1-11.3 40.3-18.7 62.8-22.1 27.3-4.2 56.9-2.4 87.8 5.2 1.8.2 3.8.4 5.8.6h.5c6 .5 11.9 1.1 18.5 2.1 25.2 4.1 72.8-18 113.2-52.4 38.6-32.9 64.5-72 64.5-97.5 0-6.4-.2-13.3-.3-20-1.1-26.3-2.9-70.2 29.8-102.8 38.6-38.7 99.8-41.8 142.2-7.3 1 .8 1.9 1.7 2.9 2.7l.4.4c23.8 23.3 238 237.5 239.5 239 20.1 20.1 31.2 46.8 31.2 75.3 0 28.4-11 55.2-31.1 75.3-32.5 32.6-76.8 30.7-103.4 29.6h-1.4c-6-.1-12.2-.3-18.1-.3-24.3 0-53.9 17.6-83.3 49.7-19.7 21.4-37.5 47.6-50 73.8-11.1 23.1-17.1 44.2-16.1 56.5.9 8.6 2.6 22.9 3 25.8 32.8 133.7-57.3 195.1-67.6 201.7l-.1.1c-20.7 12.5-46.9 9.4-63.7-7.4L374.7 756.6c-11.6-11.6-11.6-30.6 0-42.2 5.6-5.6 13.1-8.8 21.1-8.8 8 0 15.5 3.1 21.1 8.8L565.4 863c6.5-5.2 17.3-15.3 26.2-31.2 16.2-29 19.3-64 9.5-104.2v-.2c-.6-2.8-3-23.4-3.9-31.8v-.2c-1.9-22.6 5.5-53 20.7-85.6 15-32.1 36.6-64.3 60.9-90.7 28.9-31.5 74.5-69 127.2-69 7.1 0 15 .2 21.4.3h.2c26.5 1.1 46.2.9 59.2-12.1 8.8-8.8 13.6-20.5 13.6-33s-4.9-24.3-13.8-33.2C884.4 370 658 143.7 647.3 133.3c-17.8-14.2-44.6-12.5-61.2 4.1-13.1 13.2-13.4 32.6-12.3 58.7v.1c.2 7.2.3 14.7.3 21.8 0 43.9-31.9 97.3-85.5 142.9-23.9 20.4-51.2 38.1-76.8 49.8-31.9 14.6-60.3 20-84.6 16.1-5.1-.8-9.9-1.2-14.1-1.6-2.7-.2-5.4-.5-8-.8-2.6-.1-5.1-.6-7.7-1.4-83-20.4-123.9 20.5-136.1 36.1L313.6 611c10.5 10.5 11.8 26.9 2.9 38.9L152.7 871.6 316.2 752c6.4-4.7 14.3-6.6 22.2-5.4 7.9 1.2 14.8 5.5 19.5 11.9 9.7 13.3 6.7 32-6.5 41.7L146.2 949.9c-8.9 6.6-19.4 10.1-30.4 10.1z" />
</svg>