<svg class="icon" width="24" height="24" viewBox="0 0 1024 1024"
  xmlns="http://www.w3.org/2000/svg">
  <path fill="#233"
    d="M463.941 395.52c-20.356 15.92-39.174 26.688-56.546 32.388v60.436c33.023-10.946 61.612-27.774 85.952-50.484v246.634h70.75v-346.79h-58.27c-7.503 21.172-21.529 41.89-41.886 57.815zm40.53-336.747c-248.256 0-449.563 201.848-449.563 450.832 0 249.077 201.306 450.923 449.564 450.923 248.353 0 449.656-201.846 449.656-450.923 0-248.984-201.303-450.832-449.656-450.832zm0 832.364c-210.077 0-380.35-170.815-380.35-381.53 0-210.625 170.272-381.439 380.35-381.439 210.175 0 380.447 170.814 380.447 381.438 0 210.715-170.272 381.531-380.446 381.531z" />
</svg>