<svg class="icon" width="24" height="24" viewBox="0 0 1024 1024"
  xmlns="http://www.w3.org/2000/svg">
  <path fill="#3c4d5e"
    d="M976.213 930.133c-6.826 0-15.36-3.413-20.48-8.533-109.226-133.12-204.8-209.92-286.72-226.987-76.8-17.066-150.186-20.48-220.16-11.946V865.28c0 17.067-10.24 34.133-27.306 39.253-17.067 6.827-34.134 1.707-47.787-10.24L40.96 534.187c-15.36-17.067-15.36-42.667 0-59.734l332.8-341.333c11.947-11.947 30.72-17.067 46.08-10.24s27.307 22.187 27.307 39.253v168.96c143.36 6.827 266.24 63.147 368.64 165.547 107.52 107.52 168.96 245.76 186.026 406.187 1.707 11.946-5.12 22.186-15.36 25.6-3.413 1.706-6.826 1.706-10.24 1.706zM83.627 505.173L395.947 844.8V660.48c0-11.947 8.533-23.893 22.186-25.6 81.92-13.653 170.667-10.24 261.12 8.533C757.76 660.48 843.093 718.507 936.96 819.2c-25.6-110.933-78.507-208.213-157.013-288.427-97.28-98.986-218.454-150.186-358.4-150.186-13.654 0-25.6-11.947-25.6-25.6V182.613l-312.32 322.56z" />
</svg>