<svg class="icon" viewBox="0 0 1024 1024" xmlns="http://www.w3.org/2000/svg"
  width="24" height="24">
  <path
    d="M373.4 942.1c-2.9 0-5.7-.5-8.6-1.5-53.7-19-102.6-47.6-145.6-85.2-7.8-6.8-10.8-17.6-7.9-27.5 13.4-44.6 8.3-91.3-14.6-131.5-22.9-40.1-60.2-68-105.1-78.5-10-2.3-17.8-10.5-19.7-20.7-5.2-28.7-7.9-57.3-7.9-85.2 0-27.9 2.7-56.5 8.1-85.1 1.9-10.3 9.6-18.4 19.7-20.8 44.9-10.4 82.2-38.3 105.1-78.5 22.8-40.1 28-86.8 14.6-131.4-3-9.9.1-20.8 7.9-27.6 42.9-37.6 91.9-66.3 145.6-85.2 9.8-3.5 20.6-.8 27.7 6.9 31.4 34.1 73.8 52.9 119.4 52.9 45.7 0 88.1-18.8 119.5-52.9 7-7.6 17.9-10.4 27.6-6.9 53.6 18.9 102.6 47.6 145.6 85.2 7.8 6.8 10.8 17.6 7.9 27.5-13.5 44.7-8.3 91.4 14.6 131.5 22.9 40.1 60.2 68 105.1 78.5 10 2.4 17.8 10.5 19.7 20.8 5.4 28.6 8.1 57.3 8.1 85.1 0 27.8-2.7 56.4-8.1 85.1-1.9 10.3-9.7 18.4-19.7 20.7-44.9 10.5-82.2 38.4-105.1 78.5-22.9 40.2-28.1 86.9-14.6 131.5 3 9.9-.1 20.8-7.9 27.6-43 37.7-92 66.3-145.6 85.2-9.8 3.4-20.6.6-27.6-7-31.3-34.1-73.7-52.9-119.4-52.9-45.6 0-88.1 18.8-119.5 52.9-5.1 5.4-12 8.5-19.3 8.5zM263.1 829.5c31 25 65.4 45.2 102.3 59.9 19.5-18 41.9-32.2 66.5-42.1 25.7-10.4 52.7-15.6 80.1-15.6 54.6 0 106.6 20.5 146.6 57.7 36.9-14.7 71.3-34.9 102.4-59.9-5.6-26.2-6.5-52.9-2.7-79.5 4-27.7 13-54 26.7-78.1 27.2-47.7 70.8-83.1 122.8-99.9 3-20.4 4.6-40.5 4.6-59.9s-1.5-39.6-4.6-60c-52.1-16.8-95.6-52.2-122.8-99.9-13.7-24.1-22.7-50.3-26.7-78.1-3.8-26.6-2.9-53.3 2.7-79.5-31-25.1-65.4-45.2-102.4-59.9-40.2 37.2-92.2 57.7-146.7 57.7-27.4 0-54.4-5.3-80.1-15.6-24.7-9.9-47-24.1-66.6-42.1-37 14.8-71.4 35-102.4 60 5.6 26.2 6.5 52.9 2.7 79.5-4 27.7-13 54-26.7 78.1-13.7 24.1-31.7 45.1-53.4 62.5-20.8 16.7-44.1 29.2-69.3 37.4-3 20.3-4.6 40.5-4.6 60 0 19.4 1.5 39.6 4.6 59.9 52.1 16.8 95.6 52.1 122.9 99.9 27.4 47.8 35.8 103.6 24.1 157.5zM512 668.2c-85 0-154.1-70.1-154.1-156.2S427 355.8 512 355.8c41.1 0 79.8 16.3 108.9 45.8C650 431.1 666.1 470.3 666 512c0 8.6-.9 17.4-2.7 27.9-1.2 7-5.2 13.1-11 17.2-5.8 4-12.7 5.5-19.6 4.2-14.3-2.7-23.8-16.6-21.1-31 1.3-7.1 1.9-13 1.9-18.4C613.5 455.1 568 409 512 409c-55.9 0-101.5 46.2-101.5 102.9 0 56.8 45.5 102.9 101.5 102.9 5.4 0 11.1-.6 18.1-1.9 6.8-1.3 13.7.2 19.4 4.1 5.9 4.1 9.9 10.2 11.2 17.4 2.6 14.4-6.9 28.3-21.2 30.9-10.2 2.1-19 2.9-27.5 2.9z"
    fill="#333" />
</svg>