<svg class="icon" width="24" height="24" viewBox="0 0 1024 1024"
  xmlns="http://www.w3.org/2000/svg">
  <path fill="#333"
    d="M905 960H635.1c-30.3 0-55-24.7-55-55V635.1c0-30.3 24.7-55 55-55H905c30.3 0 55 24.7 55 55V905c0 30.3-24.7 55-55 55zm-516.1 0H119c-30.3 0-55-24.7-55-55V635.1c0-30.3 24.7-55 55-55h269.9c30.3 0 55 24.7 55 55V905c-.1 30.3-24.7 55-55 55zm-263.4-61.2h258v-258h-258v258zm514.8-2.8h258V638h-258v258zM905 443.8H635.1c-30.3 0-55-24.7-55-55V119c0-30.3 24.7-55 55-55H905c30.3 0 55 24.7 55 55v269.9c0 30.3-24.7 54.9-55 54.9zm-516.1 0H119c-30.3 0-55-24.7-55-55V119c0-30.3 24.7-55 55-55h269.9c30.3 0 55 24.7 55 55v269.9c-.1 30.3-24.7 54.9-55 54.9zm-263.4-61.1h258v-258h-258v258z" />
</svg>